<mxfile host="65bd71144e">
    <diagram id="-lzlWdr16KZX-_EAXECG" name="PÃ¡gina-1">
        <mxGraphModel dx="433" dy="430" grid="1" gridSize="10" guides="1" tooltips="1" connect="1" arrows="1" fold="1" page="1" pageScale="1" pageWidth="827" pageHeight="1169" math="0" shadow="0">
            <root>
                <mxCell id="0"/>
                <mxCell id="1" parent="0"/>
                <mxCell id="12" value="" style="edgeStyle=none;html=1;strokeColor=#000000;" parent="1" source="2" target="11" edge="1">
                    <mxGeometry relative="1" as="geometry"/>
                </mxCell>
                <mxCell id="2" value="INICIO" style="ellipse;whiteSpace=wrap;html=1;strokeColor=#000000;fontColor=#000000;fillColor=#FF9999;" parent="1" vertex="1">
                    <mxGeometry x="200" y="160" width="80" height="40" as="geometry"/>
                </mxCell>
                <mxCell id="23" value="" style="edgeStyle=none;html=1;strokeColor=#000000;" edge="1" parent="1" source="3" target="22">
                    <mxGeometry relative="1" as="geometry"/>
                </mxCell>
                <mxCell id="26" style="edgeStyle=orthogonalEdgeStyle;html=1;exitX=1;exitY=0.5;exitDx=0;exitDy=0;entryX=0.5;entryY=0;entryDx=0;entryDy=0;strokeColor=#000000;" edge="1" parent="1" source="3" target="17">
                    <mxGeometry relative="1" as="geometry"/>
                </mxCell>
                <mxCell id="3" value="i = frase" style="shape=hexagon;perimeter=hexagonPerimeter2;whiteSpace=wrap;html=1;fixedSize=1;strokeColor=#000000;fontColor=#000000;fillColor=#99FF99;" parent="1" vertex="1">
                    <mxGeometry x="180" y="420" width="120" height="40" as="geometry"/>
                </mxCell>
                <mxCell id="8" value="FIN" style="ellipse;whiteSpace=wrap;html=1;strokeColor=#000000;fontColor=#000000;fillColor=#FF9999;" parent="1" vertex="1">
                    <mxGeometry x="420" y="560" width="80" height="40" as="geometry"/>
                </mxCell>
                <mxCell id="20" value="" style="edgeStyle=none;html=1;strokeColor=#000000;" edge="1" parent="1" source="11" target="19">
                    <mxGeometry relative="1" as="geometry"/>
                </mxCell>
                <mxCell id="11" value="num_vocales = 0&lt;br&gt;base = &quot;aeiouAEIOU&quot;" style="whiteSpace=wrap;html=1;fillColor=#9999FF;strokeColor=#000000;fontColor=#000000;" parent="1" vertex="1">
                    <mxGeometry x="175" y="240" width="130" height="60" as="geometry"/>
                </mxCell>
                <mxCell id="18" style="edgeStyle=none;html=1;entryX=0.5;entryY=0;entryDx=0;entryDy=0;strokeColor=#000000;" parent="1" source="17" target="8" edge="1">
                    <mxGeometry relative="1" as="geometry"/>
                </mxCell>
                <mxCell id="17" value="&lt;font color=&quot;#000000&quot;&gt;suma&lt;/font&gt;" style="shape=document;whiteSpace=wrap;html=1;boundedLbl=1;fillColor=#FFFF99;strokeColor=#000000;" parent="1" vertex="1">
                    <mxGeometry x="420" y="480" width="80" height="40" as="geometry"/>
                </mxCell>
                <mxCell id="21" style="edgeStyle=none;html=1;exitX=0.5;exitY=1;exitDx=0;exitDy=0;entryX=0.5;entryY=0;entryDx=0;entryDy=0;strokeColor=#000000;" edge="1" parent="1" source="19" target="3">
                    <mxGeometry relative="1" as="geometry"/>
                </mxCell>
                <mxCell id="19" value="frase" style="shape=parallelogram;perimeter=parallelogramPerimeter;whiteSpace=wrap;html=1;fixedSize=1;fillColor=#FFFF99;strokeColor=#000000;fontColor=#000000;" vertex="1" parent="1">
                    <mxGeometry x="200" y="340" width="80" height="40" as="geometry"/>
                </mxCell>
                <mxCell id="27" style="edgeStyle=orthogonalEdgeStyle;html=1;exitX=1;exitY=0.5;exitDx=0;exitDy=0;entryX=0.5;entryY=0;entryDx=0;entryDy=0;strokeColor=#000000;" edge="1" parent="1" source="22" target="24">
                    <mxGeometry relative="1" as="geometry"/>
                </mxCell>
                <mxCell id="22" value="i in base" style="rhombus;whiteSpace=wrap;html=1;fillColor=#CC99FF;strokeColor=#000000;fontColor=#000000;" vertex="1" parent="1">
                    <mxGeometry x="200" y="500" width="80" height="80" as="geometry"/>
                </mxCell>
                <mxCell id="24" value="num_vocales += 1" style="whiteSpace=wrap;html=1;fillColor=#9999FF;strokeColor=#000000;fontColor=#000000;" vertex="1" parent="1">
                    <mxGeometry x="280" y="580" width="120" height="40" as="geometry"/>
                </mxCell>
                <mxCell id="28" value="" style="endArrow=none;html=1;strokeColor=#000000;entryX=0;entryY=0.5;entryDx=0;entryDy=0;exitX=0.5;exitY=1;exitDx=0;exitDy=0;" edge="1" parent="1" source="24" target="22">
                    <mxGeometry width="50" height="50" relative="1" as="geometry">
                        <mxPoint x="230" y="670" as="sourcePoint"/>
                        <mxPoint x="280" y="620" as="targetPoint"/>
                        <Array as="points">
                            <mxPoint x="340" y="660"/>
                            <mxPoint x="160" y="660"/>
                            <mxPoint x="160" y="540"/>
                        </Array>
                    </mxGeometry>
                </mxCell>
                <mxCell id="29" value="" style="endArrow=classic;html=1;strokeColor=#000000;entryX=0;entryY=0.5;entryDx=0;entryDy=0;exitX=0.5;exitY=1;exitDx=0;exitDy=0;endFill=1;" edge="1" parent="1" target="3">
                    <mxGeometry width="50" height="50" relative="1" as="geometry">
                        <mxPoint x="240" y="660" as="sourcePoint"/>
                        <mxPoint x="100" y="580" as="targetPoint"/>
                        <Array as="points">
                            <mxPoint x="240" y="700"/>
                            <mxPoint x="140" y="700"/>
                            <mxPoint x="140" y="440"/>
                        </Array>
                    </mxGeometry>
                </mxCell>
                <mxCell id="30" value="True" style="text;html=1;align=center;verticalAlign=middle;resizable=0;points=[];autosize=1;strokeColor=none;fillColor=none;fontColor=#000000;" vertex="1" parent="1">
                    <mxGeometry x="280" y="520" width="40" height="20" as="geometry"/>
                </mxCell>
                <mxCell id="31" value="False" style="text;html=1;align=center;verticalAlign=middle;resizable=0;points=[];autosize=1;strokeColor=none;fillColor=none;fontColor=#000000;" vertex="1" parent="1">
                    <mxGeometry x="150" y="520" width="50" height="20" as="geometry"/>
                </mxCell>
            </root>
        </mxGraphModel>
    </diagram>
</mxfile>